<svg width="45" height="45" viewBox="0 0 45 45" fill="none" xmlns="http://www.w3.org/2000/svg">
<path d="M40.7681 23.1206L23.8931 4.37063C23.1825 3.57938 21.8175 3.57938 21.1068 4.37063L4.23184 23.1206C3.98895 23.3899 3.82952 23.7239 3.77293 24.0821C3.71634 24.4402 3.76504 24.8071 3.91309 25.1381C4.21309 25.815 4.88434 26.25 5.62497 26.25H9.37497V39.375C9.37497 39.8723 9.57251 40.3492 9.92414 40.7008C10.2758 41.0525 10.7527 41.25 11.25 41.25H16.875C17.3723 41.25 17.8492 41.0525 18.2008 40.7008C18.5524 40.3492 18.75 39.8723 18.75 39.375V31.875H26.25V39.375C26.25 39.8723 26.4475 40.3492 26.7991 40.7008C27.1508 41.0525 27.6277 41.25 28.125 41.25H33.75C34.2472 41.25 34.7242 41.0525 35.0758 40.7008C35.4274 40.3492 35.625 39.8723 35.625 39.375V26.25H39.375C39.7381 26.2516 40.0938 26.1474 40.3988 25.9503C40.7037 25.7531 40.9448 25.4715 41.0924 25.1398C41.2401 24.8081 41.2881 24.4405 41.2305 24.082C41.1729 23.7235 41.0122 23.3894 40.7681 23.1206Z" fill="white"/>
</svg>
