<svg width="45" height="45" viewBox="0 0 45 45" fill="none" xmlns="http://www.w3.org/2000/svg">
<path d="M18.2812 2.8125V8.4375L15.4688 9.84375L11.25 5.625L5.625 11.25L9.84375 15.4688L8.4375 18.2812H2.8125V26.7188H8.4375L9.84375 29.5312L5.625 33.75L11.25 39.375L15.4688 35.1562L18.2812 36.5625V42.1875H26.7188V36.5625L29.5312 35.1562L33.75 39.375L39.375 33.75L35.1562 29.5312L36.5625 26.7188H42.1875V18.2812H36.5625L35.1562 15.4688L39.375 11.25L33.75 5.625L29.5312 9.84375L26.7188 8.4375V2.8125H18.2812Z" stroke="white" stroke-width="3" stroke-linecap="round" stroke-linejoin="round"/>
<path d="M22.5 28.125C25.6066 28.125 28.125 25.6066 28.125 22.5C28.125 19.3934 25.6066 16.875 22.5 16.875C19.3934 16.875 16.875 19.3934 16.875 22.5C16.875 25.6066 19.3934 28.125 22.5 28.125Z" stroke="white" stroke-width="3" stroke-linecap="round" stroke-linejoin="round"/>
</svg>
